<svg version="1.1" id="Layer_1" xmlns="http://www.w3.org/2000/svg" xmlns:xlink="http://www.w3.org/1999/xlink" x="0px" y="0px"
	 width="100%" viewBox="0 0 180 180" enable-background="new 0 0 180 180" xml:space="preserve">
<path fill="#219CEE" opacity="1.000000" stroke="none" 
	d="
M1.000000,172.000000 
	C1.000000,118.312439 1.000000,64.624878 1.238484,10.802102 
	C3.519580,8.419672 5.576036,6.184813 7.598160,3.919310 
	C8.436593,2.979964 9.201601,1.975080 10.000000,1.000000 
	C63.687561,1.000000 117.375122,1.000000 171.200409,1.240546 
	C173.817429,3.765914 176.283463,6.065429 178.784775,8.325919 
	C179.468811,8.944109 180.258698,9.445182 181.000000,9.999998 
	C181.000000,63.687561 181.000000,117.375122 180.771454,171.185547 
	C178.258713,173.793762 175.960510,176.266434 173.699478,178.772644 
	C173.076019,179.463699 172.563446,180.254807 172.000000,181.000000 
	C118.312439,181.000000 64.624878,181.000000 10.810078,180.767929 
	C8.431157,178.489517 6.191837,176.429337 3.921855,174.403503 
	C2.981709,173.564453 1.975930,172.798950 1.000000,172.000000 
M98.984665,111.068687 
	C99.260254,114.505997 100.968300,116.564629 104.501320,117.069923 
	C111.408821,118.057846 121.032997,111.213310 122.072556,104.396957 
	C122.244995,103.266289 121.844673,102.048264 121.621155,100.107742 
	C117.464890,103.662888 114.002731,106.624313 110.540573,109.585739 
	C109.911743,109.177795 109.282906,108.769852 108.654068,108.361900 
	C109.199951,105.396072 109.578430,102.387367 110.324760,99.472862 
	C112.169022,92.270897 114.682106,85.199806 115.960815,77.906822 
	C116.900444,72.547760 114.922203,67.551392 109.321899,65.210770 
	C103.528976,62.789642 98.181656,63.915756 93.649811,68.227524 
	C91.766701,70.019188 90.204140,72.147766 88.393707,74.241196 
	C86.729881,65.331085 83.704330,62.935463 76.670013,64.736443 
	C70.061470,66.428413 67.562233,69.771584 69.259651,75.125793 
	C70.286469,74.622452 71.247322,74.062706 72.272072,73.669518 
	C73.883934,73.051048 75.538826,72.544731 77.175499,71.990921 
	C77.767639,73.963234 78.493752,75.909035 78.891541,77.919800 
	C79.071877,78.831367 78.573860,79.867859 78.429405,80.854385 
	C76.936722,91.048363 75.256523,101.222137 74.135330,111.457062 
	C73.913857,113.478874 75.821960,117.520927 76.802872,117.538330 
	C79.320847,117.583038 82.439949,116.462883 84.214012,114.697937 
	C85.484970,113.433510 85.501869,110.293205 85.165627,108.131813 
	C83.420074,96.911545 88.021301,87.670021 93.945778,78.838760 
	C95.019432,77.238327 96.649307,75.847061 98.313126,74.839149 
	C102.319702,72.412018 105.828400,74.146439 105.956764,78.764793 
	C106.033325,81.519531 105.298775,84.338081 104.656288,87.063698 
	C102.834396,94.792786 100.872292,102.488823 98.984665,111.068687 
M34.628674,68.011673 
	C31.390713,69.650864 27.585102,70.720192 26.515865,76.142189 
	C34.798283,75.290382 42.067123,70.621315 49.803917,73.826141 
	C48.138500,85.386650 47.756142,85.804283 37.556221,89.492043 
	C35.712124,90.158783 33.915684,91.150497 32.357174,92.334366 
	C31.549818,92.947647 31.311893,94.310562 30.517414,95.953865 
	C35.224365,95.546005 38.962105,95.222130 42.832996,94.886711 
	C41.170464,102.855598 40.236423,103.512482 32.909580,103.192947 
	C30.795328,103.100746 28.585779,103.413902 26.537895,103.973198 
	C22.959726,104.950409 21.543007,107.623962 21.854776,111.214317 
	C22.160856,114.739182 23.969259,117.488892 27.505018,117.827187 
	C30.538103,118.117386 34.346024,118.230194 36.628540,116.679985 
	C40.537617,114.025070 43.510429,114.804291 47.431896,116.247070 
	C57.839687,120.076263 69.317146,111.162506 67.369453,100.245430 
	C61.397602,104.957565 56.944351,114.622978 47.236134,106.880074 
	C49.285881,103.307228 51.123634,99.768394 53.322582,96.470390 
	C54.004219,95.448067 55.733341,94.412987 56.869072,94.526146 
	C62.138866,95.051193 63.046970,92.057243 63.005875,87.665802 
	C61.347366,87.317390 59.835499,86.999779 58.271301,86.671181 
	C59.450867,82.852272 60.750977,79.419113 61.551685,75.873177 
	C62.828026,70.220947 61.651676,67.510010 55.998241,66.999878 
	C49.201595,66.386581 42.255325,67.431465 34.628674,68.011673 
M133.568649,67.012489 
	C132.436035,66.291229 131.303421,65.569969 130.170807,64.848709 
	C129.818832,65.107903 129.466858,65.367088 129.114883,65.626282 
	C129.458328,67.131546 129.363098,68.986061 130.229813,70.074753 
	C132.566483,73.009880 131.308823,75.153893 129.921097,78.045731 
	C127.504623,83.081299 125.274925,88.402916 124.209045,93.847771 
	C122.215439,104.031845 125.412361,111.408104 132.298386,115.101669 
	C140.196640,119.338181 152.718262,118.150131 159.140137,112.419800 
	C162.593933,109.337921 164.774017,105.743851 163.347672,101.859985 
	C157.496292,104.535049 152.279648,107.753349 146.607483,109.287895 
	C140.449875,110.953773 135.253113,107.044571 135.274475,100.715118 
	C135.295273,94.553093 136.881012,88.354065 138.259384,82.280174 
	C138.491699,81.256516 141.142334,80.200226 142.695114,80.170280 
	C146.813049,80.090874 150.987381,81.063637 155.054214,80.690514 
	C159.948608,80.241455 163.126999,76.221832 162.979019,71.949120 
	C162.826828,67.554916 159.465988,63.829021 154.328461,64.162048 
	C149.368057,64.483589 144.403107,66.078705 139.655624,67.732796 
	C137.517487,68.477760 135.909943,69.917053 133.568649,67.012489 
z"/>
<path fill="#000000" opacity="1.000000" stroke="none" 
	d="
M9.508951,1.000000 
	C9.201601,1.975080 8.436593,2.979964 7.598160,3.919310 
	C5.576036,6.184813 3.519580,8.419672 1.238484,10.333445 
	C1.000000,7.082645 1.000000,4.165290 1.000000,1.000000 
	C3.670005,1.000000 6.343954,1.000000 9.508951,1.000000 
z"/>
<path fill="#000000" opacity="1.000000" stroke="none" 
	d="
M181.000000,9.508949 
	C180.258698,9.445182 179.468811,8.944109 178.784775,8.325919 
	C176.283463,6.065429 173.817429,3.765914 171.669067,1.240546 
	C174.917358,1.000000 177.834702,1.000000 181.000000,1.000000 
	C181.000000,3.670005 181.000000,6.343954 181.000000,9.508949 
z"/>
<path fill="#000000" opacity="1.000000" stroke="none" 
	d="
M1.000000,172.491058 
	C1.975930,172.798950 2.981709,173.564453 3.921855,174.403503 
	C6.191837,176.429337 8.431157,178.489517 10.341421,180.767929 
	C7.082646,181.000000 4.165292,181.000000 1.000000,181.000000 
	C1.000000,178.330002 1.000000,175.656052 1.000000,172.491058 
z"/>
<path fill="#000000" opacity="1.000000" stroke="none" 
	d="
M172.491058,181.000000 
	C172.563446,180.254807 173.076019,179.463699 173.699478,178.772644 
	C175.960510,176.266434 178.258713,173.793762 180.771454,171.654205 
	C181.000000,174.917358 181.000000,177.834702 181.000000,181.000000 
	C178.330002,181.000000 175.656052,181.000000 172.491058,181.000000 
z"/>
<path fill="#F8FCFE" opacity="1.000000" stroke="none" 
	d="
M98.975037,110.633286 
	C100.872292,102.488823 102.834396,94.792786 104.656288,87.063698 
	C105.298775,84.338081 106.033325,81.519531 105.956764,78.764793 
	C105.828400,74.146439 102.319702,72.412018 98.313126,74.839149 
	C96.649307,75.847061 95.019432,77.238327 93.945778,78.838760 
	C88.021301,87.670021 83.420074,96.911545 85.165627,108.131813 
	C85.501869,110.293205 85.484970,113.433510 84.214012,114.697937 
	C82.439949,116.462883 79.320847,117.583038 76.802872,117.538330 
	C75.821960,117.520927 73.913857,113.478874 74.135330,111.457062 
	C75.256523,101.222137 76.936722,91.048363 78.429405,80.854385 
	C78.573860,79.867859 79.071877,78.831367 78.891541,77.919800 
	C78.493752,75.909035 77.767639,73.963234 77.175499,71.990921 
	C75.538826,72.544731 73.883934,73.051048 72.272072,73.669518 
	C71.247322,74.062706 70.286469,74.622452 69.259651,75.125793 
	C67.562233,69.771584 70.061470,66.428413 76.670013,64.736443 
	C83.704330,62.935463 86.729881,65.331085 88.393707,74.241196 
	C90.204140,72.147766 91.766701,70.019188 93.649811,68.227524 
	C98.181656,63.915756 103.528976,62.789642 109.321899,65.210770 
	C114.922203,67.551392 116.900444,72.547760 115.960815,77.906822 
	C114.682106,85.199806 112.169022,92.270897 110.324760,99.472862 
	C109.578430,102.387367 109.199951,105.396072 108.654068,108.361900 
	C109.282906,108.769852 109.911743,109.177795 110.540573,109.585739 
	C114.002731,106.624313 117.464890,103.662888 121.621155,100.107742 
	C121.844673,102.048264 122.244995,103.266289 122.072556,104.396957 
	C121.032997,111.213310 111.408821,118.057846 104.501320,117.069923 
	C100.968300,116.564629 99.260254,114.505997 98.975037,110.633286 
z"/>
<path fill="#F6FBFE" opacity="1.000000" stroke="none" 
	d="
M35.001255,67.885040 
	C42.255325,67.431465 49.201595,66.386581 55.998241,66.999878 
	C61.651676,67.510010 62.828026,70.220947 61.551685,75.873177 
	C60.750977,79.419113 59.450867,82.852272 58.271301,86.671181 
	C59.835499,86.999779 61.347366,87.317390 63.005875,87.665802 
	C63.046970,92.057243 62.138866,95.051193 56.869072,94.526146 
	C55.733341,94.412987 54.004219,95.448067 53.322582,96.470390 
	C51.123634,99.768394 49.285881,103.307228 47.236134,106.880074 
	C56.944351,114.622978 61.397602,104.957565 67.369453,100.245430 
	C69.317146,111.162506 57.839687,120.076263 47.431896,116.247070 
	C43.510429,114.804291 40.537617,114.025070 36.628540,116.679985 
	C34.346024,118.230194 30.538103,118.117386 27.505018,117.827187 
	C23.969259,117.488892 22.160856,114.739182 21.854776,111.214317 
	C21.543007,107.623962 22.959726,104.950409 26.537895,103.973198 
	C28.585779,103.413902 30.795328,103.100746 32.909580,103.192947 
	C40.236423,103.512482 41.170464,102.855598 42.832996,94.886711 
	C38.962105,95.222130 35.224365,95.546005 30.517414,95.953865 
	C31.311893,94.310562 31.549818,92.947647 32.357174,92.334366 
	C33.915684,91.150497 35.712124,90.158783 37.556221,89.492043 
	C47.756142,85.804283 48.138500,85.386650 49.803917,73.826141 
	C42.067123,70.621315 34.798283,75.290382 26.515865,76.142189 
	C27.585102,70.720192 31.390713,69.650864 35.001255,67.885040 
z"/>
<path fill="#F8FCFE" opacity="1.000000" stroke="none" 
	d="
M133.830139,67.279442 
	C135.909943,69.917053 137.517487,68.477760 139.655624,67.732796 
	C144.403107,66.078705 149.368057,64.483589 154.328461,64.162048 
	C159.465988,63.829021 162.826828,67.554916 162.979019,71.949120 
	C163.126999,76.221832 159.948608,80.241455 155.054214,80.690514 
	C150.987381,81.063637 146.813049,80.090874 142.695114,80.170280 
	C141.142334,80.200226 138.491699,81.256516 138.259384,82.280174 
	C136.881012,88.354065 135.295273,94.553093 135.274475,100.715118 
	C135.253113,107.044571 140.449875,110.953773 146.607483,109.287895 
	C152.279648,107.753349 157.496292,104.535049 163.347672,101.859985 
	C164.774017,105.743851 162.593933,109.337921 159.140137,112.419800 
	C152.718262,118.150131 140.196640,119.338181 132.298386,115.101669 
	C125.412361,111.408104 122.215439,104.031845 124.209045,93.847771 
	C125.274925,88.402916 127.504623,83.081299 129.921097,78.045731 
	C131.308823,75.153893 132.566483,73.009880 130.229813,70.074753 
	C129.363098,68.986061 129.458328,67.131546 129.114883,65.626282 
	C129.466858,65.367088 129.818832,65.107903 130.170807,64.848709 
	C131.303421,65.569969 132.436035,66.291229 133.830139,67.279442 
M152.089554,75.856522 
	C153.021591,74.808029 153.953613,73.759537 154.885635,72.711044 
	C153.659302,72.110512 152.314468,70.848221 151.230438,71.042336 
	C148.697906,71.495827 146.290619,72.648735 143.832611,73.518387 
	C143.941452,74.048897 144.050293,74.579407 144.159134,75.109917 
	C146.524643,75.376877 148.890137,75.643845 152.089554,75.856522 
z"/>
<path fill="#37A6F0" opacity="1.000000" stroke="none" 
	d="
M151.672607,75.883667 
	C148.890137,75.643845 146.524643,75.376877 144.159134,75.109917 
	C144.050293,74.579407 143.941452,74.048897 143.832611,73.518387 
	C146.290619,72.648735 148.697906,71.495827 151.230438,71.042336 
	C152.314468,70.848221 153.659302,72.110512 154.885635,72.711044 
	C153.953613,73.759537 153.021591,74.808029 151.672607,75.883667 
z"/>
</svg>